<?xml version="1.0" encoding="iso-8859-1"?>
<!-- Generator: Adobe Illustrator 21.0.2, SVG Export Plug-In . SVG Version: 6.00 Build 0)  -->
<svg version="1.1" id="Layer_1" xmlns="http://www.w3.org/2000/svg" xmlns:xlink="http://www.w3.org/1999/xlink" x="0px" y="0px"
	 viewBox="0 0 40 40" style="enable-background:new 0 0 40 40;" xml:space="preserve">
<rect x="5.5" y="1.5" style="fill:#FFFFFF;" width="29" height="36"/>
<path style="fill:#4788C7;" d="M34,2v31.391C34,35.384,32.384,37,30.391,37H6V2H34 M35,1H5v37h26.562C33.461,38,35,36.461,35,34.563
	V1L35,1z"/>
<circle style="fill:#98CCFD;" cx="16" cy="10" r="3"/>
<path style="fill:#98CCFD;" d="M16,14c-2.761,0-5,2.239-5,5h10C21,16.239,18.761,14,16,14z"/>
<rect x="33" y="21" style="fill:#FFFFFF;" width="2" height="5"/>
<rect x="26" y="36" style="fill:#FFFFFF;" width="7" height="2"/>
<polygon style="fill:#98CCFD;" points="25.113,31.5 29.5,31.5 29.5,24.5 34.5,24.5 34.5,31.5 38.887,31.5 32,39.248 "/>
<path style="fill:#4788C7;" d="M34,25v6v1h1h2.773L32,38.495L26.227,32H29h1v-1v-6H34 M35,24h-6v7h-5l8,9l8-9h-5V24L35,24z"/>
<path style="fill:#4788C7;" d="M34.5,18L34.5,18c0.275,0,0.5,0.225,0.5,0.5v3c0,0.275-0.225,0.5-0.5,0.5l0,0
	c-0.275,0-0.5-0.225-0.5-0.5v-3C34,18.225,34.225,18,34.5,18z"/>
<path style="fill:#4788C7;" d="M21.5,37h5c0.275,0,0.5,0.225,0.5,0.5l0,0c0,0.275-0.225,0.5-0.5,0.5h-5c-0.275,0-0.5-0.225-0.5-0.5
	l0,0C21,37.225,21.225,37,21.5,37z"/>
<path style="fill:#4788C7;" d="M28.5,11h-5c-0.275,0-0.5-0.225-0.5-0.5v0c0-0.275,0.225-0.5,0.5-0.5h5c0.275,0,0.5,0.225,0.5,0.5v0
	C29,10.775,28.775,11,28.5,11z"/>
<path style="fill:#4788C7;" d="M28.5,15h-5c-0.275,0-0.5-0.225-0.5-0.5v0c0-0.275,0.225-0.5,0.5-0.5h5c0.275,0,0.5,0.225,0.5,0.5v0
	C29,14.775,28.775,15,28.5,15z"/>
<path style="fill:#4788C7;" d="M28.5,19h-5c-0.275,0-0.5-0.225-0.5-0.5l0,0c0-0.275,0.225-0.5,0.5-0.5h5c0.275,0,0.5,0.225,0.5,0.5
	l0,0C29,18.775,28.775,19,28.5,19z"/>
<path style="fill:#4788C7;" d="M26.5,23h-15c-0.275,0-0.5-0.225-0.5-0.5l0,0c0-0.275,0.225-0.5,0.5-0.5h15
	c0.275,0,0.5,0.225,0.5,0.5l0,0C27,22.775,26.775,23,26.5,23z"/>
<path style="fill:#4788C7;" d="M26.5,27h-15c-0.275,0-0.5-0.225-0.5-0.5l0,0c0-0.275,0.225-0.5,0.5-0.5h15
	c0.275,0,0.5,0.225,0.5,0.5l0,0C27,26.775,26.775,27,26.5,27z"/>
<path style="fill:#4788C7;" d="M21.5,31h-10c-0.275,0-0.5-0.225-0.5-0.5l0,0c0-0.275,0.225-0.5,0.5-0.5h10
	c0.275,0,0.5,0.225,0.5,0.5l0,0C22,30.775,21.775,31,21.5,31z"/>
</svg>
